<?xml version="1.0" encoding="utf-8"?>
<!-- Generator: Adobe Illustrator 24.1.0, SVG Export Plug-In . SVG Version: 6.00 Build 0)  -->
<svg version="1.1" id="Layer_1" xmlns="http://www.w3.org/2000/svg" xmlns:xlink="http://www.w3.org/1999/xlink" x="0px" y="0px"
	 viewBox="0 0 400 349" style="enable-background:new 0 0 400 349;" xml:space="preserve">
<style type="text/css">
	.st0{fill:#5E60CE;}
	.st1{fill:#72EFDD;}
</style>
<path class="st0" d="M82.4,113.9c0,3.2-1.6,6.2-4.2,8c-2.6,1.4-7.3,2.4-16.9,2.4h-2.2c-2.1,12.1-3.2,24.3-3.3,36.5
	c0,10.5,1.3,18.7,2.7,23.3c-2,2-8.9,4.6-13.6,4.6c-5.1,0-8-4.6-8-20.4c0-13.4,2.7-32,5.8-44.7c-3.3-0.4-6.5-0.7-9.8-0.7
	c-5.4-0.1-10.8,0.8-15.8,2.7c-1.3-2.1-2.1-4.6-2.1-7.1c0-4.9,6.2-10.7,13.4-10.7c7.5,0,14.5,2.4,30.7,2.4c8.2,0,15.8-1.6,20.2-3.6
	C81.2,108.6,82.3,111.2,82.4,113.9z"/>
<path class="st0" d="M109.7,146.7c-4.9,0-10.7,8-10.7,17.8c0,5.6,1.8,9.3,1.8,14c0,3.8-6,9.3-12.2,9.3c-4.7,0-8.9-5.8-8.9-12.9
	c0-6.7,2-14,2-24.3c0-6.9-1.1-9.6-3.6-9.6c-2,0.1-4,0.5-5.8,1.3c-1-1-1.6-2.3-1.6-3.6c0-4.4,7.3-10.2,15.4-10.2
	c8,0,12.7,5.1,10.9,20.4h0.7c3.6-15.6,10-20.5,16-20.5c5.3,0,9.3,4.9,9.3,10.4c0,4-2.7,8.2-7.8,10.2
	C113.7,147.3,111.7,146.5,109.7,146.7z"/>
<path class="st0" d="M125.7,138.5c0-3.8,7.3-10.2,16.4-10.2c8.2,0,14.5,5.1,14.5,15.6c0,8.6-1.8,17.6-1.8,26c0,5.3,1.3,6.7,3.8,6.7
	c1.7,0,3.3-0.5,4.7-1.3c0.8,1.1,1.2,2.4,1.3,3.8c0,4-6.4,8.5-14,8.5c-8.5,0-14.5-5.4-14.5-15.6c0-6.9,1.8-14.4,1.8-22.9
	c0-6.9-2-8.4-4.7-8.4c-1.9,0.1-3.8,0.5-5.6,1.3C126.5,141.2,125.8,139.9,125.7,138.5z"/>
<path class="st0" d="M164.7,138.5c0-4.4,8.2-10.2,16.4-10.2c7.4,0,12,4.4,11.4,14.4h0.6c4.2-9.4,11.1-14.4,19.1-14.4
	c10.2,0,19.3,9.8,19.3,25.8c0,20.9-12.5,33.6-25.3,33.6c-7.6,0-12.4-2.9-15.4-7.8c-0.2,2.2-0.5,4.9-0.5,7.8
	c-0.2,8.7,1.8,17.6,1.8,22.7c0,4.6-6,11.4-11.8,11.4c-5.6,0-8.7-6.2-8.7-12.9c0-6.2,1.3-17.3,3.4-27.6c0.7-8.2,1.3-24.2,1.3-31.6
	c0-6.4-1.3-8.9-4-8.9c-1.9,0.1-3.8,0.5-5.6,1.3C165.5,141.2,164.8,139.9,164.7,138.5z M192.1,170.7c2,3,5.5,4.8,9.1,4.7
	c6,0,10.5-6.4,10.5-19.1c0-9.3-3.1-14.2-7.4-14.2c-4.2,0-8.6,4-11.5,11.8L192.1,170.7z"/>
<path class="st0" d="M272.1,177.2c0,5.1-5.6,10.5-14,10.5c-10,0-18.4-6-18.4-25.1c0-22.7,3.3-44.2,6.2-54.3c2-7.1,3.5-9.3,7.5-9.3
	c6.2,0,13.4,5.5,13.4,10.2c0,3.1-2.5,10.7-6.7,19.1c-1.5,5.8-2.4,17.6-2.4,30.5c0,14,2.4,17.1,6.2,17.1c2.3,0,4.5-0.9,6.2-2.5
	C271.4,174.3,272.1,175.7,272.1,177.2z"/>
<path class="st0" d="M325.9,174.5c0,5.4-9.3,13.3-22.5,13.3c-17.3,0-29.1-10.2-29.1-27.8c0-17.1,13.6-32.2,31.3-32.2
	c12.7,0,20.9,8,20.9,18.6c0,10.7-8,18.2-19.3,18.2c-4.5,0-8.9-1.2-12.9-3.3c0.7,9.6,5.6,14,14.4,14c5.4,0.1,10.6-1.8,14.7-5.3
	C325,170.9,326,172.6,325.9,174.5z M300.8,155.9c6.2,0,9.1-3.8,9.1-9.4c0-5.1-2.7-8-6.2-8c-4.9,0-9.1,5.8-9.6,16.5
	C296.3,155.7,298.6,156,300.8,155.9z"/>
<path class="st0" d="M369.7,146.7c-4.9,0-10.7,8-10.7,17.8c0,5.6,1.8,9.3,1.8,14c0,3.8-6,9.3-12.2,9.3c-4.7,0-8.9-5.8-8.9-12.9
	c0-6.7,2-14,2-24.3c0-6.9-1.1-9.6-3.6-9.6c-2,0.1-4,0.5-5.8,1.3c-1-1-1.6-2.3-1.6-3.6c0-4.4,7.3-10.2,15.5-10.2
	c8,0,12.7,5.1,10.9,20.4h0.7c3.6-15.6,10-20.5,16-20.5c5.3,0,9.3,4.9,9.3,10.4c0,4-2.7,8.2-7.8,10.2
	C373.7,147.3,371.8,146.5,369.7,146.7z"/>
<path class="st1" d="M67.8,95.7c0.5,0.8,0.6,1.8,0.4,2.7c0,0.1-0.1,0.2-0.2,0.3c-0.6,0.8-2.3,2.1-5.4,3.9c-2.2,1.3-3.7,1.9-4.7,1.9
	c-0.1,0-0.3,0-0.4-0.1c-0.9-0.4-1.8-1.1-2.3-2c-0.3-0.5-0.3-0.6,0.3-1.2c1-1,2.2-1.8,3.4-2.5c2.6-1.3,4-2,6.9-3.7
	c0.6-0.4,1.3-0.3,1.7,0.3l0,0C67.7,95.4,67.7,95.5,67.8,95.7z"/>
<path class="st1" d="M132.4,100.3c-0.5,0.8-1.4,1.3-2.3,1.5c-0.1,0-0.2,0-0.4,0c-1-0.2-2.8-1.2-5.8-3.2c-2.1-1.5-3.2-2.6-3.7-3.4
	c-0.1-0.1-0.1-0.3-0.1-0.4c0-1,0.3-2.1,0.9-3c0.3-0.5,0.4-0.5,1.2-0.2c1.3,0.5,2.6,1.2,3.6,2.1c2.3,1.8,3.5,2.8,6.2,4.7
	c0.6,0.3,0.8,1.1,0.5,1.7C132.5,100.1,132.5,100.2,132.4,100.3z"/>
<path class="st1" d="M112.7,89.1c-0.2,0.9-0.7,1.7-1.5,2.3c-0.1,0.1-0.2,0.1-0.4,0.1c-1,0.2-3.1,0-6.6-0.7c-2.5-0.5-4-1.1-4.7-1.7
	c-0.1-0.1-0.2-0.2-0.3-0.3c-0.4-0.9-0.5-2-0.4-3c0.1-0.5,0.2-0.7,1-0.7c1.4-0.1,2.8,0.1,4.2,0.5c2.8,0.8,4.3,1.2,7.6,1.8
	c0.7,0.1,1.2,0.7,1.1,1.3l0,0C112.8,88.8,112.7,89,112.7,89.1z"/>
<path class="st1" d="M88.5,86.8c0.3,0.9,0.3,1.9-0.1,2.7c-0.1,0.1-0.1,0.2-0.2,0.3c-0.8,0.7-2.6,1.6-6,2.8c-2.4,0.8-4,1.1-4.9,1
	c-0.1,0-0.3-0.1-0.4-0.1C76,92.9,75.4,92,75,91c-0.2-0.5-0.2-0.7,0.5-1.1c1.2-0.8,2.5-1.4,3.8-1.7c2.8-0.8,4.3-1.2,7.4-2.3
	c0.6-0.3,1.4,0,1.7,0.6C88.4,86.6,88.5,86.8,88.5,86.8z"/>
<path class="st0" d="M161.2,117.8c0,2.2-2.8,5-5.9,5c-3.6,0-5.8-1.7-8.3-8.4h-0.1c-2,6.1-4.2,8.4-6.9,8.4c-2.1-0.1-3.7-1.7-3.9-3.7
	c-0.1-0.7,0.2-1.4,0.7-1.9c3.8-0.7,7.1-3.2,8.9-6.6c-2.2-6.3-3.7-7.8-5.6-7.8c-0.7,0-1.4,0.2-1.9,0.5c-0.4-0.5-0.7-1.1-0.7-1.7
	c0-1.9,3-4.5,6.4-4.5c3,0,5.5,1.9,7.3,8.2h0.1c2-5.6,4.2-8.2,6.7-8.2c1.7,0,3.6,2.2,3.7,5.5c-3.7,0.9-7,3.2-9.2,6.3
	c2.2,6.8,3.9,8.2,5.7,8.2c0.8,0,1.6-0.3,2.3-0.8C161,116.6,161.2,117.1,161.2,117.8z"/>
</svg>
